<svg width="294" height="57" viewBox="0 0 294 57" fill="none" xmlns="http://www.w3.org/2000/svg">
<path opacity="0.82" d="M27.9742 0.949219H19.1627L5.40771 24.1575H14.6487L27.9742 0.949219Z" fill="#005B8F"/>
<path d="M13.5747 38.1249H22.6012L14.6487 24.1572H5.40771L13.5747 38.1249Z" fill="#005C8D"/>
<path d="M14.4346 39.4146H41.2992L45.5974 47.1504H18.9479L14.4346 39.4146Z" fill="#004572"/>
<path d="M49.2512 25.4473L53.7645 32.9681L45.5975 47.1508L41.2993 39.415L49.2512 25.4473Z" fill="#558FCC"/>
<path opacity="0.82" d="M24.9653 8.68486H41.2992L45.5974 1.16406H29.2635L24.9653 8.68486Z" fill="#005B8F"/>
<path d="M58.9223 23.9422L54.6241 31.8932L41.2993 8.68486L45.5975 1.16406L58.9223 23.9422Z" fill="#5F95C8"/>
<path d="M39.3656 11.6704L36.8303 16.351H27.8582L25.1274 11.6704H39.3656Z" fill="#0073A6"/>
<path d="M27.858 16.351L23.5671 24.1515H18.1055L25.1272 11.6704L27.858 16.351Z" fill="#0073A6"/>
<path d="M27.858 31.9526L25.1272 36.4378L18.1055 24.1514H23.5671L27.858 31.9526Z" fill="#005C8D"/>
<path d="M40.1451 26.6875L36.8301 31.953L39.5601 36.4382L45.2165 26.6875H40.1451Z" fill="#00588E"/>
<path d="M40.1451 22.0067H45.2165L39.3654 11.6704L36.8301 16.351L40.1451 22.0067Z" fill="#0073A6"/>
<path d="M39.5771 36.4661L25.1274 36.4378L27.8582 31.9526H36.8303L39.5771 36.4661Z" fill="#00436D"/>
<path d="M78.8806 39.812V33.0186H80.2526V39.812H78.8806Z" fill="#1C1C1B"/>
<path d="M84.4214 39.812V33.0186H85.7563L88.5372 37.5553V33.0186H89.8118V39.812H88.4311L85.6923 35.3799V39.812H84.4214Z" fill="#1C1C1B"/>
<path d="M97.2709 37.3148V36.1697H100.228V38.8762C99.9407 39.1548 99.5243 39.3996 98.9793 39.6108C98.4514 39.819 97.8893 39.9267 97.3218 39.9283C96.6111 39.9283 95.9918 39.7791 95.4637 39.4807C94.9421 39.1901 94.5252 38.7427 94.272 38.202C94.0042 37.6365 93.8681 37.0177 93.8738 36.3921C93.861 35.735 94.0139 35.0853 94.3185 34.503C94.6114 33.9567 95.0667 33.5147 95.6214 33.238C96.0574 33.0123 96.5995 32.8994 97.2477 32.8994C98.0911 32.8994 98.7502 33.0765 99.2249 33.4305C99.6997 33.7846 100.005 34.2734 100.141 34.8968L98.7773 35.1518C98.6929 34.8346 98.5024 34.5558 98.2374 34.362C97.9739 34.1683 97.644 34.0714 97.2477 34.0714C96.6484 34.0714 96.172 34.2613 95.8183 34.641C95.4647 35.0208 95.2876 35.5848 95.2872 36.3332C95.2872 37.1397 95.4664 37.7452 95.8249 38.1497C96.1834 38.5541 96.653 38.7556 97.2339 38.7542C97.5302 38.7527 97.8236 38.6953 98.0986 38.5849C98.365 38.4846 98.6156 38.3466 98.8427 38.1751V37.3148H97.2709Z" fill="#1C1C1B"/>
<path d="M104.341 39.812V33.0186H109.38V34.1673H105.713V35.6735H109.129V36.8185H105.713V38.6677H109.51V39.812H104.341Z" fill="#1C1C1B"/>
<path d="M113.534 39.812V33.0186H114.869L117.649 37.5553V33.0186H118.923V39.812H117.547L114.808 35.3799V39.812H113.534Z" fill="#1C1C1B"/>
<path d="M123.182 39.812V33.0186H124.552V39.812H123.182Z" fill="#1C1C1B"/>
<path d="M128.708 39.812V33.0186H133.747V34.1673H130.08V35.6735H133.496V36.8185H130.08V38.6677H133.877V39.812H128.708Z" fill="#1C1C1B"/>
<path d="M137.892 39.812V33.0186H140.78C141.506 33.0186 142.034 33.0796 142.363 33.2017C142.693 33.3246 142.971 33.555 143.153 33.8556C143.353 34.1765 143.456 34.5484 143.45 34.9265C143.45 35.4366 143.3 35.8575 143 36.1893C142.701 36.5211 142.253 36.7306 141.656 36.8178C141.927 36.971 142.175 37.1629 142.391 37.3875C142.585 37.5943 142.845 37.9619 143.172 38.4904L144.001 39.8157H142.36L141.368 38.3378C141.017 37.8089 140.774 37.4759 140.642 37.3388C140.529 37.2129 140.388 37.1159 140.23 37.0561C140.084 37.0077 139.854 36.9835 139.539 36.9835H139.26V39.8171L137.892 39.812ZM139.264 35.8885H140.281C140.94 35.8885 141.351 35.8607 141.517 35.805C141.673 35.755 141.809 35.6539 141.901 35.518C141.998 35.3666 142.047 35.1892 142.041 35.0094C142.05 34.8086 141.985 34.6114 141.857 34.4557C141.723 34.3081 141.539 34.2135 141.341 34.1891C141.229 34.1736 140.896 34.1658 140.339 34.1658H139.268L139.264 35.8885Z" fill="#1C1C1B"/>
<path d="M147.391 32.6292L148.031 31.2437H149.491L148.216 32.6292H147.391ZM147.549 39.8122V33.0187H148.921V39.8122H147.549Z" fill="#1C1C1B"/>
<path d="M159.203 39.812H157.71L157.117 38.2688H154.401L153.841 39.812H152.387L155.034 33.0186H156.487L159.203 39.812ZM156.677 37.1237L155.741 34.6025L154.823 37.1237H156.677Z" fill="#1C1C1B"/>
<path d="M169.524 39.812V36.953L167.036 33.0186H168.644L170.242 35.7069L171.809 33.0186H173.39L170.891 36.9617V39.812H169.524Z" fill="#1C1C1B"/>
<path d="M186.58 37.3148L187.91 37.7362C187.707 38.4774 187.368 39.0281 186.893 39.3885C186.418 39.7489 185.816 39.9288 185.088 39.9283C184.185 39.9283 183.444 39.62 182.863 39.0034C182.282 38.3868 181.991 37.5442 181.991 36.4756C181.991 35.3441 182.283 34.4659 182.867 33.8411C183.451 33.2162 184.219 32.9033 185.171 32.9023C186.001 32.9023 186.676 33.1479 187.196 33.6391C187.505 33.9297 187.737 34.3468 187.891 34.8903L186.536 35.215C186.473 34.8851 186.294 34.5887 186.031 34.3795C185.768 34.1704 185.439 34.0623 185.104 34.075C184.872 34.0675 184.641 34.1123 184.429 34.2061C184.217 34.3 184.028 34.4404 183.878 34.6171C183.564 34.9789 183.407 35.5643 183.408 36.3732C183.408 37.233 183.562 37.8448 183.871 38.2085C184.017 38.3855 184.201 38.5269 184.41 38.6217C184.619 38.7165 184.847 38.7623 185.076 38.7556C185.422 38.7624 185.758 38.6384 186.017 38.4083C186.278 38.1768 186.466 37.8123 186.58 37.3148Z" fill="#1C1C1B"/>
<path d="M191.658 36.457C191.658 35.7653 191.761 35.184 191.968 34.7132C192.122 34.3678 192.337 34.0525 192.601 33.7817C192.849 33.5201 193.147 33.3119 193.479 33.1699C193.944 32.9827 194.442 32.8913 194.944 32.9011C195.945 32.9011 196.746 33.2116 197.347 33.8326C197.947 34.4536 198.248 35.3175 198.249 36.4243C198.249 37.5204 197.95 38.3785 197.354 38.9985C196.758 39.6185 195.962 39.9285 194.965 39.9285C193.955 39.9285 193.152 39.6202 192.556 39.0036C191.96 38.387 191.66 37.5381 191.658 36.457ZM193.071 36.4112C193.071 37.1799 193.249 37.7631 193.604 38.1608C193.776 38.348 193.984 38.4975 194.216 38.5999C194.449 38.7024 194.699 38.7555 194.953 38.7559C195.207 38.7563 195.458 38.704 195.691 38.6023C195.923 38.5006 196.132 38.3518 196.304 38.1651C196.655 37.7713 196.83 37.1804 196.83 36.3923C196.83 35.6134 196.661 35.0322 196.321 34.6485C195.982 34.2649 195.529 34.0733 194.961 34.0738C194.396 34.0738 193.94 34.2676 193.594 34.6551C193.247 35.0426 193.073 35.6279 193.071 36.4112Z" fill="#1C1C1B"/>
<path d="M202.18 39.812V33.0186H203.515L206.297 37.5553V33.0186H207.572V39.812H206.194L203.456 35.3799V39.812H202.18Z" fill="#1C1C1B"/>
<path d="M211.522 37.6016L212.857 37.4716C212.937 37.9201 213.1 38.2492 213.346 38.459C213.592 38.6687 213.924 38.7738 214.34 38.7743C214.782 38.7743 215.115 38.6808 215.339 38.4939C215.563 38.3069 215.675 38.0889 215.675 37.8399C215.679 37.6907 215.629 37.5451 215.534 37.4301C215.439 37.3175 215.275 37.2187 215.04 37.1352C214.879 37.0799 214.513 36.9811 213.942 36.8387C213.206 36.6571 212.69 36.4333 212.394 36.1674C212.195 35.9994 212.036 35.7898 211.928 35.5534C211.82 35.3171 211.765 35.0598 211.768 34.7999C211.768 34.4542 211.87 34.1161 212.062 33.8285C212.269 33.5189 212.565 33.279 212.91 33.1404C213.28 32.983 213.725 32.9043 214.247 32.9043C215.101 32.9043 215.743 33.0913 216.174 33.4652C216.605 33.8392 216.831 34.3381 216.853 34.962L215.481 35.0223C215.422 34.6735 215.296 34.4224 215.103 34.2688C214.909 34.1153 214.619 34.039 214.231 34.0399C213.832 34.0399 213.52 34.1218 213.295 34.2855C213.226 34.3318 213.17 34.3947 213.132 34.4684C213.094 34.542 213.075 34.624 213.077 34.7069C213.077 34.7867 213.095 34.8654 213.131 34.9369C213.166 35.0085 213.217 35.071 213.28 35.1196C213.454 35.2649 213.874 35.4163 214.541 35.5737C215.208 35.7312 215.701 35.8942 216.022 36.0627C216.33 36.2203 216.59 36.4589 216.773 36.753C216.954 37.0436 217.044 37.4045 217.044 37.8356C217.045 38.2239 216.932 38.6038 216.72 38.9291C216.501 39.2716 216.18 39.5366 215.802 39.6869C215.406 39.8516 214.914 39.9342 214.324 39.9347C213.464 39.9347 212.805 39.7361 212.344 39.3389C211.884 38.9417 211.61 38.3626 211.522 37.6016Z" fill="#1C1C1B"/>
<path d="M222.579 39.812V34.1673H220.562V33.0186H225.962V34.1673H223.95V39.812H222.579Z" fill="#1C1C1B"/>
<path d="M229.7 39.812V33.0186H232.587C233.314 33.0186 233.842 33.0796 234.17 33.2017C234.5 33.3244 234.778 33.5548 234.96 33.8556C235.16 34.1765 235.263 34.5484 235.257 34.9265C235.257 35.4366 235.107 35.8575 234.807 36.1893C234.508 36.5211 234.059 36.7306 233.463 36.8178C233.734 36.971 233.982 37.1629 234.198 37.3875C234.391 37.5943 234.652 37.9619 234.979 38.4904L235.809 39.8157H234.168L233.176 38.3378C232.823 37.8089 232.581 37.4759 232.449 37.3388C232.336 37.2128 232.195 37.1159 232.037 37.0561C231.891 37.0077 231.661 36.9835 231.346 36.9835H231.068V39.8171L229.7 39.812ZM231.072 35.8885H232.089C232.747 35.8885 233.159 35.8607 233.324 35.805C233.481 35.755 233.617 35.654 233.709 35.518C233.806 35.3666 233.855 35.1891 233.848 35.0094C233.857 34.8086 233.792 34.6114 233.665 34.4557C233.53 34.3081 233.347 34.2135 233.148 34.1891C233.037 34.1736 232.704 34.1658 232.147 34.1658H231.077L231.072 35.8885Z" fill="#1C1C1B"/>
<path d="M239.388 33.0186H240.76V36.6979C240.76 37.2821 240.777 37.6606 240.811 37.8336C240.864 38.101 241.013 38.3397 241.231 38.5035C241.452 38.6711 241.754 38.7551 242.137 38.7556C242.527 38.7556 242.82 38.6764 243.018 38.5173C243.206 38.3735 243.334 38.1642 243.375 37.9309C243.424 37.5482 243.444 37.1622 243.435 36.7764V33.0186H244.807V36.5868C244.807 37.403 244.77 37.9791 244.696 38.3153C244.633 38.6295 244.491 38.9228 244.285 39.1683C244.067 39.4137 243.793 39.6035 243.486 39.7219C243.153 39.859 242.717 39.9278 242.178 39.9283C241.529 39.9283 241.037 39.8535 240.702 39.7038C240.395 39.5751 240.123 39.376 239.907 39.1225C239.723 38.904 239.591 38.6463 239.522 38.3691C239.433 37.9816 239.388 37.4071 239.388 36.6456L239.388 33.0186Z" fill="#1C1C1B"/>
<path d="M253.448 37.3148L254.778 37.7362C254.575 38.4774 254.236 39.0281 253.761 39.3885C253.286 39.7489 252.685 39.9288 251.956 39.9283C251.053 39.9283 250.312 39.62 249.731 39.0034C249.15 38.3868 248.859 37.5442 248.859 36.4756C248.859 35.3441 249.151 34.4659 249.735 33.8411C250.319 33.2162 251.087 32.9033 252.039 32.9023C252.87 32.9023 253.545 33.1479 254.064 33.6391C254.373 33.9297 254.605 34.3468 254.759 34.8903L253.401 35.215C253.338 34.8851 253.159 34.5887 252.897 34.3795C252.634 34.1704 252.305 34.0623 251.969 34.075C251.737 34.0675 251.506 34.1123 251.294 34.2061C251.082 34.3 250.894 34.4404 250.743 34.6171C250.429 34.9789 250.272 35.5643 250.273 36.3732C250.273 37.233 250.427 37.8448 250.736 38.2085C250.882 38.3855 251.066 38.5269 251.275 38.6217C251.484 38.7165 251.712 38.7623 251.941 38.7556C252.288 38.7625 252.624 38.6385 252.882 38.4083C253.145 38.1768 253.334 37.8123 253.448 37.3148Z" fill="#1C1C1B"/>
<path d="M263.152 37.3148L264.481 37.7362C264.277 38.4774 263.938 39.0281 263.464 39.3885C262.99 39.7489 262.388 39.9288 261.659 39.9283C260.757 39.9283 260.015 39.62 259.434 39.0034C258.853 38.3868 258.562 37.5442 258.562 36.4756C258.562 35.3441 258.854 34.4659 259.438 33.8411C260.021 33.2162 260.789 32.9033 261.741 32.9023C262.572 32.9023 263.248 33.1479 263.767 33.6391C264.076 33.9297 264.308 34.3468 264.463 34.8903L263.104 35.215C263.042 34.8852 262.863 34.5889 262.6 34.3798C262.337 34.1706 262.008 34.0625 261.673 34.075C261.441 34.0675 261.21 34.1123 260.998 34.2061C260.786 34.3 260.597 34.4404 260.447 34.6171C260.133 34.9789 259.976 35.5643 259.976 36.3732C259.976 37.233 260.131 37.8448 260.44 38.2085C260.586 38.3856 260.77 38.5269 260.979 38.6217C261.188 38.7166 261.416 38.7624 261.645 38.7556C261.991 38.7625 262.327 38.6385 262.586 38.4083C262.849 38.1768 263.038 37.8123 263.152 37.3148Z" fill="#1C1C1B"/>
<path d="M268.465 39.812V33.0186H269.837V39.812H268.465Z" fill="#1C1C1B"/>
<path d="M273.714 36.4568C273.714 35.7651 273.817 35.1839 274.024 34.7131C274.178 34.3677 274.393 34.0523 274.657 33.7816C274.905 33.5201 275.204 33.3119 275.535 33.1698C276 32.9825 276.498 32.8911 277 32.901C278.001 32.901 278.802 33.2115 279.403 33.8324C280.005 34.4534 280.305 35.3173 280.304 36.4241C280.304 37.5203 280.006 38.3784 279.41 38.9984C278.814 39.6184 278.016 39.9282 277.018 39.9277C276.008 39.9277 275.204 39.6194 274.608 39.0028C274.012 38.3861 273.714 37.5375 273.714 36.4568ZM275.127 36.4111C275.127 37.1798 275.305 37.763 275.66 38.1607C275.832 38.3478 276.04 38.4974 276.272 38.5998C276.504 38.7023 276.755 38.7554 277.009 38.7558C277.263 38.7562 277.514 38.7039 277.747 38.6022C277.979 38.5005 278.188 38.3516 278.36 38.165C278.711 37.7712 278.886 37.1803 278.886 36.3922C278.886 35.6133 278.716 35.032 278.377 34.6484C278.038 34.2648 277.585 34.0732 277.016 34.0737C276.451 34.0737 275.995 34.2674 275.649 34.6549C275.304 35.0424 275.129 35.6278 275.127 36.4111ZM276.165 32.6292L276.805 31.2437H278.265L276.99 32.6292H276.165Z" fill="#1C1C1B"/>
<path d="M284.237 39.812V33.0186H285.572L288.353 37.5553V33.0186H289.628V39.812H288.251L285.512 35.3799V39.812H284.237Z" fill="#1C1C1B"/>
<path d="M83.6409 24.9808C82.7466 24.9808 81.9863 24.8878 81.3599 24.7018C80.7335 24.5158 80.2232 24.255 79.8288 23.9193C79.4451 23.6 79.1488 23.1885 78.9677 22.7233C78.7834 22.2302 78.6925 21.7072 78.6996 21.1808V13.0432C78.6926 12.5168 78.7835 11.9937 78.9677 11.5006C79.149 11.0356 79.4453 10.6241 79.8288 10.3047C80.2232 9.9695 80.7335 9.70866 81.3599 9.52217C81.9863 9.33568 82.7466 9.24268 83.6409 9.24317H96.3175V11.5682H83.6409C82.3286 11.5682 81.6726 12.0526 81.6731 13.0214V21.2033C81.6731 22.1721 82.329 22.6565 83.6409 22.6565H96.3175V24.9815L83.6409 24.9808Z" fill="#1C1C1B" stroke="#1C1C1B"/>
<path d="M105.888 24.9808C104.994 24.9808 104.234 24.8878 103.607 24.7018C102.981 24.5158 102.471 24.255 102.076 23.9193C101.693 23.6 101.396 23.1885 101.215 22.7233C101.031 22.2302 100.94 21.7072 100.947 21.1808V13.0432C100.94 12.5168 101.031 11.9937 101.215 11.5006C101.397 11.0356 101.693 10.6241 102.076 10.3047C102.471 9.9695 102.982 9.70866 103.607 9.52217C104.233 9.33568 104.993 9.24268 105.888 9.24317H116.284C117.178 9.24317 117.939 9.33617 118.565 9.52217C119.191 9.70817 119.702 9.96902 120.096 10.3047C120.48 10.6247 120.776 11.037 120.957 11.5028C121.141 11.9959 121.232 12.519 121.225 13.0453V21.183C121.232 21.7093 121.142 22.2324 120.957 22.7255C120.776 23.1906 120.48 23.6022 120.096 23.9215C119.701 24.2566 119.191 24.5175 118.565 24.704C117.939 24.8905 117.179 24.9835 116.284 24.983L105.888 24.9808ZM118.252 13.0214C118.252 12.0526 117.596 11.5682 116.284 11.5682H105.888C104.576 11.5682 103.92 12.0526 103.921 13.0214V21.2033C103.921 22.1721 104.576 22.6565 105.888 22.6565H116.284C117.596 22.6565 118.252 22.1721 118.252 21.2033V13.0214Z" fill="#1C1C1B" stroke="#1C1C1B"/>
<path d="M145.64 24.9808L128.849 12.73V24.9808H126.256V9.24316H128.827L144.499 20.9345V9.24316H147.094V24.9808H145.64Z" fill="#1C1C1B" stroke="#1C1C1B"/>
<path d="M155.209 18.4976V24.9808H152.238V9.24316H168.425V11.5682H155.209V16.174H167.528V18.499L155.209 18.4976Z" fill="#1C1C1B" stroke="#1C1C1B"/>
<path d="M172.38 24.9808V9.24316H175.353V24.9808H172.38Z" fill="#1C1C1B" stroke="#1C1C1B"/>
<path d="M198.829 24.9808L190.713 12.3057L182.467 24.9808H179.158L189.622 9.24316H191.791L202.187 24.9808H198.829Z" fill="#1C1C1B" stroke="#1C1C1B"/>
<path d="M205.112 24.9808V22.6558H218.795C220.106 22.6558 220.761 22.1714 220.762 21.2026V19.2132C220.762 18.2445 220.106 17.7601 218.795 17.7601H209.539C208.644 17.7601 207.883 17.6671 207.258 17.4811C206.632 17.2951 206.121 17.0342 205.727 16.6986C205.343 16.3793 205.047 15.9677 204.865 15.5026C204.681 15.0095 204.59 14.4864 204.597 13.9601V13.0432C204.59 12.5168 204.681 11.9937 204.865 11.5006C205.047 11.0356 205.343 10.6241 205.727 10.3047C206.121 9.9695 206.631 9.70866 207.258 9.52217C207.884 9.33568 208.644 9.24268 209.539 9.24317H222.863V11.5682H209.539C208.226 11.5682 207.57 12.0526 207.571 13.0214V13.9819C207.571 14.9507 208.227 15.435 209.539 15.435H218.795C219.689 15.435 220.449 15.5283 221.075 15.7148C221.701 15.9013 222.212 16.1621 222.607 16.4973C222.99 16.8167 223.286 17.2282 223.467 17.6932C223.651 18.1864 223.742 18.7094 223.735 19.2358V21.1808C223.742 21.7072 223.652 22.2302 223.467 22.7233C223.286 23.1883 222.99 23.5998 222.607 23.9193C222.212 24.2545 221.701 24.5153 221.075 24.7018C220.449 24.8883 219.689 24.9813 218.795 24.9808H205.112Z" fill="#1C1C1B" stroke="#1C1C1B"/>
<path d="M228.408 24.9808V9.24316H244.596V11.5682H231.382V15.5033H243.924V17.8284H231.382V22.6558H244.596V24.9808H228.408Z" fill="#1C1C1B" stroke="#1C1C1B"/>
<path d="M264.314 24.9808L260.626 17.9614H252.331V24.9808H249.357V9.24316H262.728C263.623 9.24316 264.383 9.33617 265.008 9.52217C265.634 9.70817 266.145 9.96902 266.541 10.3047C266.924 10.6252 267.219 11.0374 267.4 11.5028C267.585 11.9958 267.676 12.5189 267.669 13.0453V14.1635C267.669 15.1774 267.37 16.0231 266.774 16.7007C266.178 17.3784 265.18 17.7838 263.78 17.917L267.486 24.9808H264.314ZM264.694 13.0214C264.694 12.0526 264.039 11.5682 262.727 11.5682H252.331V15.637H262.727C264.039 15.637 264.694 15.1527 264.694 14.1839V13.0214Z" fill="#1C1C1B" stroke="#1C1C1B"/>
<path d="M280.435 24.9808L269.971 9.24316H273.347L281.575 21.9183L289.713 9.24316H293L282.601 24.9808H280.435Z" fill="#1C1C1B" stroke="#1C1C1B"/>
</svg>
